<?xml version="1.0" encoding="utf-8"?>
<!-- Generator: Adobe Illustrator 25.3.0, SVG Export Plug-In . SVG Version: 6.00 Build 0)  -->
<svg version="1.1" xmlns="http://www.w3.org/2000/svg" xmlns:xlink="http://www.w3.org/1999/xlink" x="0px" y="0px"
	 viewBox="0 0 1284 2778" style="enable-background:new 0 0 1284 2778;" xml:space="preserve">
<style type="text/css">
	.st0{fill:#FCFDFD;}
	.st1{fill:#1B59A5;}
	.st2{fill:#D7D4E8;}
	.st3{fill:url(#SVGID_1_);}
	.st4{fill:url(#SVGID_2_);}
	.st5{fill:url(#SVGID_3_);}
	.st6{fill:url(#SVGID_4_);}
	.st7{fill:url(#SVGID_5_);}
	.st8{fill:url(#SVGID_6_);}
	.st9{fill:url(#SVGID_7_);}
	.st10{fill:#FFFFFF;}
</style>
<g id="Layer_2">
	<g>
		<path class="st0" d="M645.45,841.57c70.35,61.28,140.37,122.28,210.7,183.54c4.57-5.26,8.68-9.98,13.07-15.04
			c-74.83-65.18-149.19-129.99-223.77-194.95c-30.63,26.63-60.93,52.96-92.32,80.24c0-15.89,0-30.12,0-44.4
			c-22.57,0-44.65,0-67.05,0c0,3.02,0,5.41,0,7.83c0,29.75,0.12,59.5-0.21,89.25c-0.04,3.19-1.9,7.2-4.27,9.36
			c-13.16,12.04-26.73,23.63-40.15,35.41c-6.54,5.73-13.01,11.53-19.65,17.41c4.59,5.18,8.66,9.79,12.91,14.6
			c1.43-1.08,2.7-1.92,3.83-2.91c21.06-18.43,42.04-36.95,63.2-55.23c3.35-2.89,4.51-5.91,4.5-10.21
			c-0.16-26.22-0.09-52.45-0.09-78.67c0-2.31,0-4.62,0-7.02c9.56,0,18.04,0,27.37,0c0,22.56,0,44.79,0,68.09
			C571.4,905.94,608.28,873.88,645.45,841.57z M443.18,1326.25c12.06-9.72,23.35-19.13,35.02-28.04c6.35-4.85,13.61-7.25,22.03-7.42
			c57.72-1.3,115.44-2.82,173.14-4.81c7.65-0.26,15.96-2.19,22.7-5.75c65.14-34.42,130.08-69.31,194.92-104.29
			c6.1-3.3,11.97-7.64,16.74-12.64c13.7-14.41,16.37-35.85,7.25-51.97c-9.01-15.92-27.39-24.18-47.17-19.38
			c-9.65,2.33-18.82,7.18-27.81,11.66c-28.11,14.05-56.04,28.5-84.45,42.99c3.14,6.1,6.1,11.85,9.12,17.74
			c32.04-16.38,63.15-32.36,94.33-48.18c4.07-2.06,8.45-3.83,12.87-4.88c10.51-2.5,20.03,1.08,25.08,8.84
			c5.01,7.69,5.11,18.68-1.68,26.54c-4.88,5.63-11.37,10.33-17.99,13.91c-62.5,33.79-125.14,67.35-187.9,100.63
			c-5.59,2.96-12.45,4.73-18.78,4.94c-58.81,1.94-117.63,3.4-176.44,5.04c-2.84,0.09-5.87,0.11-8.45,1.09
			c-22.56,8.66-40.07,24.04-56.17,41.92C434.61,1318.68,439.23,1322.74,443.18,1326.25z M377.1,1229.56
			c26.35-24.27,51.86-48.27,78.03-71.54c6.9-6.12,15.38-11,23.91-14.62c17.26-7.3,35.53-7.58,53.91-4.64
			c18.02,2.89,35.96,7.27,54.09,8.25c31.87,1.75,63.86,1.36,95.81,1.96c4.18,0.07,8.39,0.25,12.49,1.01
			c12.66,2.35,22.06,12.49,22.24,23.56c0.18,10.97-8.43,20.95-20.95,23.91c-3.6,0.85-7.41,1.22-11.11,1.22
			c-30.63,0.11-61.28,0.07-91.91,0.07c-2.35,0-4.69,0-7.09,0c0,7,0,13.24,0,19.68c1.23,0.09,2.08,0.21,2.93,0.21
			c33.07,0.02,66.13,0.05,99.18-0.05c3.7-0.02,7.48-0.58,11.13-1.32c21.46-4.39,37.14-22.06,37.9-42.57
			c0.71-18.83-13.35-37.14-33.79-43.03c-6.26-1.8-13.01-2.47-19.54-2.56c-22.26-0.3-44.56,0.81-66.77-0.37
			c-23.03-1.23-46.12-3.51-68.85-7.27c-17.07-2.82-33.88-5.64-51.12-3.23c-21.34,3-40.7,10.09-56.8,25.41
			c-23.63,22.48-47.9,44.28-71.9,66.38c-1.73,1.59-3.4,3.23-5.17,4.92C368.32,1220.02,372.48,1224.53,377.1,1229.56z
			 M815.98,1086.66c0-17.21,0.3-33.74-0.25-50.24c-0.11-3.42-2.61-7.58-5.27-10c-52.08-46.91-104.31-93.62-156.56-140.34
			c-6.23-5.57-10.51-5.57-16.77,0.04c-52.41,46.86-104.84,93.69-157.04,140.8c-2.72,2.45-4.57,7.07-4.8,10.81
			c-0.65,10.32-0.23,20.7-0.23,31.07c0,7.85,0,15.68,0,23.42c7.14,0,13.38,0,19.93,0c0-15.71,0.18-30.91-0.11-46.12
			c-0.09-4.41,1.38-7.28,4.59-10.14c36.05-32.1,71.99-64.31,107.94-96.52c12.59-11.27,25.18-22.54,37.88-33.89
			c1.46,1.11,2.56,1.83,3.51,2.7c47.79,42.78,95.6,85.53,143.21,128.51c2.22,2.01,3.76,5.89,3.84,8.94
			c0.41,13.58,0.18,27.18,0.18,40.97C802.93,1086.66,809.05,1086.66,815.98,1086.66z"/>
		<path class="st1" d="M645.45,841.57c-37.17,32.31-74.05,64.37-111.91,97.29c0-23.28,0-45.53,0-68.09c-9.33,0-17.81,0-27.37,0
			c0,2.4,0,4.71,0,7.02c0,26.22-0.07,52.45,0.09,78.67c0.04,4.3-1.15,7.32-4.5,10.21c-21.18,18.29-42.15,36.8-63.2,55.23
			c-1.13,0.99-2.4,1.82-3.83,2.91c-4.25-4.81-8.32-9.42-12.91-14.6c6.63-5.87,13.1-11.66,19.65-17.41
			c13.42-11.78,27-23.37,40.15-35.41c2.36-2.17,4.23-6.17,4.27-9.36c0.34-29.75,0.21-59.5,0.21-89.25c0-2.42,0-4.83,0-7.83
			c22.41,0,44.49,0,67.05,0c0,14.28,0,28.52,0,44.4c31.39-27.28,61.69-53.63,92.32-80.24c74.56,64.97,148.94,129.78,223.77,194.95
			c-4.39,5.04-8.5,9.77-13.07,15.04C785.83,963.85,715.8,902.85,645.45,841.57z"/>
		<path class="st2" d="M443.18,1326.25c-3.95-3.49-8.57-7.57-13.67-12.08c16.1-17.88,33.61-33.26,56.17-41.92
			c2.57-0.99,5.61-1.02,8.45-1.09c58.81-1.66,117.64-3.12,176.44-5.04c6.33-0.21,13.19-1.98,18.78-4.94
			c62.78-33.28,125.4-66.84,187.9-100.63c6.61-3.58,13.12-8.27,17.99-13.91c6.79-7.85,6.68-18.83,1.68-26.54
			c-5.04-7.78-14.57-11.34-25.08-8.84c-4.43,1.06-8.8,2.82-12.87,4.88c-31.2,15.82-62.3,31.8-94.33,48.18
			c-3.03-5.89-5.98-11.64-9.12-17.74c28.43-14.5,56.34-28.94,84.45-42.99c8.99-4.5,18.16-9.33,27.81-11.66
			c19.79-4.78,38.18,3.46,47.17,19.38c9.12,16.12,6.45,37.54-7.25,51.97c-4.76,5.01-10.63,9.35-16.74,12.64
			c-64.84,34.99-129.76,69.87-194.92,104.29c-6.74,3.56-15.04,5.48-22.7,5.75c-57.7,1.99-115.42,3.53-173.14,4.81
			c-8.41,0.19-15.68,2.57-22.03,7.42C466.53,1307.1,455.24,1316.53,443.18,1326.25z"/>
		<path class="st2" d="M377.1,1229.56c-4.62-5.03-8.78-9.56-13.4-14.58c1.78-1.69,3.46-3.33,5.17-4.92
			c23.98-22.1,48.27-43.91,71.9-66.38c16.1-15.31,35.46-22.41,56.8-25.41c17.23-2.42,34.05,0.41,51.12,3.23
			c22.73,3.76,45.83,6.01,68.85,7.27c22.2,1.2,44.51,0.07,66.77,0.37c6.54,0.09,13.3,0.76,19.54,2.56
			c20.46,5.89,34.49,24.2,33.79,43.03c-0.76,20.51-16.44,38.18-37.9,42.57c-3.65,0.74-7.41,1.32-11.13,1.32
			c-33.07,0.11-66.11,0.05-99.18,0.05c-0.85,0-1.69-0.12-2.93-0.21c0-6.42,0-12.68,0-19.68c2.4,0,4.74,0,7.09,0
			c30.63,0,61.28,0.04,91.91-0.07c3.7-0.02,7.51-0.37,11.11-1.22c12.52-2.96,21.13-12.96,20.95-23.91
			c-0.18-11.07-9.58-21.21-22.24-23.56c-4.09-0.76-8.32-0.93-12.49-1.01c-31.94-0.58-63.93-0.21-95.81-1.96
			c-18.13-0.99-36.06-5.38-54.09-8.25c-18.38-2.95-36.65-2.66-53.91,4.64c-8.54,3.6-17.02,8.48-23.91,14.62
			C428.96,1181.29,403.45,1205.29,377.1,1229.56z"/>
		<path class="st1" d="M815.98,1086.66c-6.93,0-13.03,0-19.95,0c0-13.79,0.23-27.39-0.18-40.97c-0.09-3.07-1.62-6.95-3.84-8.94
			c-47.61-42.96-95.42-85.72-143.21-128.51c-0.97-0.86-2.06-1.59-3.51-2.7c-12.7,11.36-25.29,22.63-37.88,33.89
			c-35.96,32.18-71.9,64.4-107.94,96.52c-3.21,2.86-4.67,5.73-4.59,10.14c0.28,15.2,0.11,30.4,0.11,46.12c-6.54,0-12.77,0-19.93,0
			c0-7.74,0-15.59,0-23.42c0-10.35-0.42-20.74,0.23-31.07c0.23-3.74,2.08-8.36,4.8-10.81c52.2-47.1,104.63-93.94,157.04-140.8
			c6.26-5.59,10.55-5.61,16.77-0.04c52.25,46.71,104.49,93.43,156.56,140.34c2.68,2.42,5.17,6.58,5.27,10
			C816.28,1052.92,815.98,1069.45,815.98,1086.66z"/>
	</g>
</g>
<g id="Layer_1">
	<g>
		<g>
			<linearGradient id="SVGID_1_" gradientUnits="userSpaceOnUse" x1="168.6758" y1="1474.3264" x2="817.4365" y2="1474.3264">
				<stop  offset="0.5967" style="stop-color:#FFFFFF"/>
				<stop  offset="1" style="stop-color:#000000"/>
			</linearGradient>
			<path class="st3" d="M181.25,1388.17h25.95v146.35h-25.95V1388.17z M192.31,1448.93h38.52c2.48,0,4.66-0.55,6.54-1.66
				c1.88-1.11,3.3-2.67,4.27-4.68c0.97-2.01,1.46-4.36,1.46-7.04v-8.25c0-2.82-0.49-5.28-1.46-7.39c-0.97-2.11-2.38-3.72-4.22-4.83
				c-1.85-1.11-4.04-1.66-6.59-1.66h-38.52v-25.25h38.83c7.98,0,14.9,1.54,20.77,4.63c5.87,3.08,10.38,7.53,13.53,13.33
				c3.15,5.8,4.73,12.62,4.73,20.47v8.55c0,7.98-1.58,14.9-4.73,20.77c-3.15,5.87-7.66,10.38-13.53,13.53
				c-5.87,3.15-12.79,4.73-20.77,4.73h-38.83V1448.93z M217.86,1469.65l26.15-4.63l31.28,69.5h-29.97L217.86,1469.65z"/>
			<linearGradient id="SVGID_2_" gradientUnits="userSpaceOnUse" x1="168.6758" y1="1474.3264" x2="817.4365" y2="1474.3264">
				<stop  offset="0.5967" style="stop-color:#FFFFFF"/>
				<stop  offset="1" style="stop-color:#000000"/>
			</linearGradient>
			<path class="st4" d="M301.91,1531.36c-6-3.12-10.61-7.63-13.83-13.53c-3.22-5.9-4.83-12.98-4.83-21.22v-26.76
				c0-8.72,1.54-16.16,4.63-22.33c3.08-6.17,7.54-10.88,13.38-14.13c5.83-3.25,12.88-4.88,21.12-4.88c8.05,0,14.92,1.78,20.62,5.33
				c5.7,3.55,10.04,8.74,13.03,15.54c2.98,6.81,4.48,15.04,4.48,24.69v18.41h-58.14v-18.61h33.5v-7.44c0-4.43-1.26-7.93-3.77-10.51
				c-2.51-2.58-5.75-3.87-9.71-3.87c-4.49,0-8.01,1.46-10.56,4.38c-2.55,2.92-3.82,7.03-3.82,12.32v28.37c0,5.1,1.31,9,3.92,11.72
				c2.62,2.71,6.3,4.07,11.06,4.07c3.62,0,6.62-0.91,9-2.72c2.38-1.81,4.14-4.46,5.28-7.95l22.03,8.35
				c-2.01,8.45-6.05,14.8-12.12,19.06c-6.07,4.26-13.9,6.39-23.49,6.39C315.17,1536.04,307.91,1534.48,301.91,1531.36z"/>
			<linearGradient id="SVGID_3_" gradientUnits="userSpaceOnUse" x1="168.6758" y1="1474.3264" x2="817.4365" y2="1474.3264">
				<stop  offset="0.5967" style="stop-color:#FFFFFF"/>
				<stop  offset="1" style="stop-color:#000000"/>
			</linearGradient>
			<path class="st5" d="M376.95,1528.19c-4.79-5.23-7.19-12.98-7.19-23.24c0-10.66,3.02-18.78,9.05-24.34
				c6.04-5.57,14.99-8.35,26.86-8.35h16.9l1.41,20.42h-17.6c-4.09,0-7.19,1.02-9.3,3.07c-2.11,2.05-3.17,5.11-3.17,9.2
				c0,3.22,0.97,5.63,2.92,7.24c1.94,1.61,4.86,2.41,8.75,2.41c5.43,0,9.52-0.91,12.27-2.72c2.75-1.81,4.12-4.53,4.12-8.15
				l1.91,11.97c-0.27,4.43-1.56,8.15-3.87,11.17s-5.33,5.3-9.05,6.84s-7.9,2.31-12.52,2.31
				C388.9,1536.04,381.74,1533.42,376.95,1528.19z M421.96,1463.92c0-3.75-1.17-6.65-3.52-8.7c-2.35-2.04-5.67-3.07-9.96-3.07
				c-3.15,0-6.02,0.7-8.6,2.11c-2.58,1.41-4.61,3.35-6.09,5.83l-20.42-8.35c2.08-7.31,6.2-13.03,12.37-17.15
				c6.17-4.12,13.85-6.19,23.03-6.19c7.85,0,14.57,1.39,20.17,4.17c5.6,2.78,9.87,6.79,12.82,12.02c2.95,5.23,4.43,11.53,4.43,18.91
				v71.01h-24.24V1463.92z"/>
			<linearGradient id="SVGID_4_" gradientUnits="userSpaceOnUse" x1="168.6758" y1="1474.3264" x2="817.4365" y2="1474.3264">
				<stop  offset="0.5967" style="stop-color:#FFFFFF"/>
				<stop  offset="1" style="stop-color:#000000"/>
			</linearGradient>
			<path class="st6" d="M487.54,1501.43c0,2.41,0.65,4.29,1.96,5.63c1.31,1.34,3.13,2.01,5.48,2.01h3.92v25.45h-11.57
				c-8.18,0-14.55-2.41-19.11-7.24c-4.56-4.83-6.84-11.63-6.84-20.42v-118.59h26.15V1501.43z"/>
			<linearGradient id="SVGID_5_" gradientUnits="userSpaceOnUse" x1="168.6758" y1="1474.3264" x2="817.4365" y2="1474.3264">
				<stop  offset="0.5967" style="stop-color:#FFFFFF"/>
				<stop  offset="1" style="stop-color:#000000"/>
			</linearGradient>
			<path class="st7" d="M498.51,1430.12h49.09v23.13h-49.09V1430.12z M514.8,1528.04c-4.36-4.66-6.54-11.55-6.54-20.67v-107.63
				h26.25v102.2c0,2.48,0.54,4.36,1.61,5.63c1.07,1.27,2.58,1.91,4.53,1.91h6.94v25.55h-12.37
				C525.97,1535.03,519.16,1532.7,514.8,1528.04z"/>
			<linearGradient id="SVGID_6_" gradientUnits="userSpaceOnUse" x1="168.6758" y1="1474.3264" x2="817.4365" y2="1474.3264">
				<stop  offset="0.5967" style="stop-color:#FFFFFF"/>
				<stop  offset="1" style="stop-color:#000000"/>
			</linearGradient>
			<path class="st8" d="M573.65,1531.71c-5.7-2.88-10.04-7.09-13.03-12.62c-2.99-5.53-4.48-12.19-4.48-19.97v-34.2
				c0-7.71,1.49-14.3,4.48-19.77c2.98-5.46,7.33-9.62,13.03-12.47c5.7-2.85,12.57-4.27,20.62-4.27c7.98,0,14.84,1.42,20.57,4.27
				c5.73,2.85,10.09,7.01,13.08,12.47c2.98,5.47,4.48,12.05,4.48,19.77v34.5c0,7.71-1.49,14.3-4.48,19.76
				c-2.98,5.47-7.34,9.64-13.08,12.52c-5.73,2.88-12.59,4.33-20.57,4.33C586.22,1536.04,579.35,1534.59,573.65,1531.71z
				 M603.17,1508.12c2.11-2.31,3.17-5.55,3.17-9.71v-32.59c0-4.16-1.06-7.36-3.17-9.61c-2.11-2.25-5.08-3.37-8.9-3.37
				s-6.79,1.14-8.9,3.42c-2.11,2.28-3.17,5.47-3.17,9.56v32.59c0,4.22,1.04,7.48,3.12,9.76c2.08,2.28,5.06,3.42,8.95,3.42
				C598.09,1511.59,601.06,1510.44,603.17,1508.12z"/>
			<linearGradient id="SVGID_7_" gradientUnits="userSpaceOnUse" x1="168.6758" y1="1474.3264" x2="817.4365" y2="1474.3264">
				<stop  offset="0.5967" style="stop-color:#FFFFFF"/>
				<stop  offset="1" style="stop-color:#000000"/>
			</linearGradient>
			<path class="st9" d="M645.47,1430.12h27.16v104.41h-27.16V1430.12z M695.87,1455.37c-1.54-0.33-3.25-0.5-5.13-0.5
				c-5.7,0-10.14,1.78-13.33,5.33c-3.19,3.55-4.78,8.48-4.78,14.79l-2.11-26.66c2.95-6.24,6.75-11.12,11.42-14.64
				c4.66-3.52,9.77-5.28,15.34-5.28c2.15,0,4.11,0.35,5.88,1.06c1.78,0.7,3.3,1.73,4.58,3.07l-7.95,24.44
				C698.72,1456.24,697.41,1455.7,695.87,1455.37z"/>
		</g>
		<g>
			<g>
				<path class="st10" d="M181.25,1388.17h25.95v146.35h-25.95V1388.17z M192.31,1448.93h38.52c2.48,0,4.66-0.55,6.54-1.66
					c1.88-1.11,3.3-2.67,4.27-4.68c0.97-2.01,1.46-4.36,1.46-7.04v-8.25c0-2.82-0.49-5.28-1.46-7.39c-0.97-2.11-2.38-3.72-4.22-4.83
					c-1.85-1.11-4.04-1.66-6.59-1.66h-38.52v-25.25h38.83c7.98,0,14.9,1.54,20.77,4.63c5.87,3.08,10.38,7.53,13.53,13.33
					c3.15,5.8,4.73,12.62,4.73,20.47v8.55c0,7.98-1.58,14.9-4.73,20.77c-3.15,5.87-7.66,10.38-13.53,13.53
					c-5.87,3.15-12.79,4.73-20.77,4.73h-38.83V1448.93z M217.86,1469.65l26.15-4.63l31.28,69.5h-29.97L217.86,1469.65z"/>
				<path class="st10" d="M301.91,1531.36c-6-3.12-10.61-7.63-13.83-13.53c-3.22-5.9-4.83-12.98-4.83-21.22v-26.76
					c0-8.72,1.54-16.16,4.63-22.33c3.08-6.17,7.54-10.88,13.38-14.13c5.83-3.25,12.88-4.88,21.12-4.88c8.05,0,14.92,1.78,20.62,5.33
					c5.7,3.55,10.04,8.74,13.03,15.54c2.98,6.81,4.48,15.04,4.48,24.69v18.41h-58.14v-18.61h33.5v-7.44c0-4.43-1.26-7.93-3.77-10.51
					c-2.51-2.58-5.75-3.87-9.71-3.87c-4.49,0-8.01,1.46-10.56,4.38c-2.55,2.92-3.82,7.03-3.82,12.32v28.37c0,5.1,1.31,9,3.92,11.72
					c2.62,2.71,6.3,4.07,11.06,4.07c3.62,0,6.62-0.91,9-2.72c2.38-1.81,4.14-4.46,5.28-7.95l22.03,8.35
					c-2.01,8.45-6.05,14.8-12.12,19.06c-6.07,4.26-13.9,6.39-23.49,6.39C315.17,1536.04,307.91,1534.48,301.91,1531.36z"/>
				<path class="st10" d="M376.95,1528.19c-4.79-5.23-7.19-12.98-7.19-23.24c0-10.66,3.02-18.78,9.05-24.34
					c6.04-5.57,14.99-8.35,26.86-8.35h16.9l1.41,20.42h-17.6c-4.09,0-7.19,1.02-9.3,3.07c-2.11,2.05-3.17,5.11-3.17,9.2
					c0,3.22,0.97,5.63,2.92,7.24c1.94,1.61,4.86,2.41,8.75,2.41c5.43,0,9.52-0.91,12.27-2.72c2.75-1.81,4.12-4.53,4.12-8.15
					l1.91,11.97c-0.27,4.43-1.56,8.15-3.87,11.17s-5.33,5.3-9.05,6.84s-7.9,2.31-12.52,2.31
					C388.9,1536.04,381.74,1533.42,376.95,1528.19z M421.96,1463.92c0-3.75-1.17-6.65-3.52-8.7c-2.35-2.04-5.67-3.07-9.96-3.07
					c-3.15,0-6.02,0.7-8.6,2.11c-2.58,1.41-4.61,3.35-6.09,5.83l-20.42-8.35c2.08-7.31,6.2-13.03,12.37-17.15
					c6.17-4.12,13.85-6.19,23.03-6.19c7.85,0,14.57,1.39,20.17,4.17c5.6,2.78,9.87,6.79,12.82,12.02
					c2.95,5.23,4.43,11.53,4.43,18.91v71.01h-24.24V1463.92z"/>
				<path class="st10" d="M487.54,1501.43c0,2.41,0.65,4.29,1.96,5.63c1.31,1.34,3.13,2.01,5.48,2.01h3.92v25.45h-11.57
					c-8.18,0-14.55-2.41-19.11-7.24c-4.56-4.83-6.84-11.63-6.84-20.42v-118.59h26.15V1501.43z"/>
				<path class="st10" d="M498.51,1430.12h49.09v23.13h-49.09V1430.12z M514.8,1528.04c-4.36-4.66-6.54-11.55-6.54-20.67v-107.63
					h26.25v102.2c0,2.48,0.54,4.36,1.61,5.63c1.07,1.27,2.58,1.91,4.53,1.91h6.94v25.55h-12.37
					C525.97,1535.03,519.16,1532.7,514.8,1528.04z"/>
				<path class="st10" d="M573.65,1531.71c-5.7-2.88-10.04-7.09-13.03-12.62c-2.99-5.53-4.48-12.19-4.48-19.97v-34.2
					c0-7.71,1.49-14.3,4.48-19.77c2.98-5.46,7.33-9.62,13.03-12.47c5.7-2.85,12.57-4.27,20.62-4.27c7.98,0,14.84,1.42,20.57,4.27
					c5.73,2.85,10.09,7.01,13.08,12.47c2.98,5.47,4.48,12.05,4.48,19.77v34.5c0,7.71-1.49,14.3-4.48,19.76
					c-2.98,5.47-7.34,9.64-13.08,12.52c-5.73,2.88-12.59,4.33-20.57,4.33C586.22,1536.04,579.35,1534.59,573.65,1531.71z
					 M603.17,1508.12c2.11-2.31,3.17-5.55,3.17-9.71v-32.59c0-4.16-1.06-7.36-3.17-9.61c-2.11-2.25-5.08-3.37-8.9-3.37
					s-6.79,1.14-8.9,3.42c-2.11,2.28-3.17,5.47-3.17,9.56v32.59c0,4.22,1.04,7.48,3.12,9.76c2.08,2.28,5.06,3.42,8.95,3.42
					C598.09,1511.59,601.06,1510.44,603.17,1508.12z"/>
				<path class="st10" d="M645.47,1430.12h27.16v104.41h-27.16V1430.12z M695.87,1455.37c-1.54-0.33-3.25-0.5-5.13-0.5
					c-5.7,0-10.14,1.78-13.33,5.33c-3.19,3.55-4.78,8.48-4.78,14.79l-2.11-26.66c2.95-6.24,6.75-11.12,11.42-14.64
					c4.66-3.52,9.77-5.28,15.34-5.28c2.15,0,4.11,0.35,5.88,1.06c1.78,0.7,3.3,1.73,4.58,3.07l-7.95,24.44
					C698.72,1456.24,697.41,1455.7,695.87,1455.37z"/>
			</g>
		</g>
	</g>
	<g>
		<g>
			<path class="st2" d="M722.97,1451.32h9.86l31.49,82.36h-16.71l-19.71-56.24l-19.71,56.24h-16.71L722.97,1451.32z M706.6,1505.53
				h43.33v14.95H706.6V1505.53z"/>
			<path class="st2" d="M780.86,1533.59c-3.32-0.62-6.44-1.54-9.35-2.75c-2.91-1.21-5.48-2.66-7.7-4.36l9.57-11.95
				c2.83,1.81,5.79,3.21,8.89,4.19c3.1,0.98,6.04,1.47,8.84,1.47c3.62,0,6.44-0.41,8.44-1.22c2-0.81,3-1.93,3-3.37
				c0-1.32-0.44-2.32-1.3-3c-0.87-0.68-1.98-1.16-3.34-1.45s-3.27-0.54-5.72-0.76c-0.68-0.08-1.37-0.15-2.07-0.23
				s-1.41-0.15-2.12-0.23c-0.15-0.04-0.31-0.07-0.48-0.09c-0.17-0.02-0.33-0.03-0.48-0.03c-4.38-0.57-7.89-1.27-10.54-2.1
				c-2.64-0.83-4.88-2.43-6.71-4.79c-1.83-2.36-2.75-5.79-2.75-10.28c0-3.93,0.94-7.29,2.83-10.08c1.89-2.79,4.62-4.92,8.21-6.37
				c3.59-1.45,7.93-2.18,13.03-2.18c2.98,0,5.96,0.3,8.92,0.91s5.81,1.47,8.53,2.61s5.23,2.49,7.53,4.08l-9.23,11.27
				c-2.57-1.44-5.25-2.55-8.04-3.34c-2.79-0.79-5.48-1.19-8.04-1.19c-3.13,0-5.57,0.36-7.31,1.08c-1.74,0.72-2.61,1.72-2.61,3
				c0,0.98,0.46,1.75,1.39,2.29c0.93,0.55,2.08,0.95,3.46,1.19c1.38,0.25,3.39,0.52,6.03,0.82c0.34,0.04,0.68,0.08,1.02,0.11
				s0.68,0.08,1.02,0.11c0.15,0.04,0.32,0.06,0.51,0.06c0.19,0,0.36,0.02,0.51,0.06c4.57,0.53,8.29,1.21,11.16,2.04
				c2.87,0.83,5.31,2.49,7.33,4.98s3.03,6.15,3.03,10.99c0,4.08-0.98,7.57-2.95,10.48c-1.96,2.91-4.83,5.12-8.61,6.65
				c-3.78,1.53-8.33,2.29-13.65,2.29C787.6,1534.53,784.18,1534.21,780.86,1533.59z"/>
			<path class="st2" d="M836.26,1533.59c-3.32-0.62-6.44-1.54-9.35-2.75c-2.91-1.21-5.48-2.66-7.7-4.36l9.57-11.95
				c2.83,1.81,5.8,3.21,8.89,4.19c3.1,0.98,6.04,1.47,8.84,1.47c3.62,0,6.44-0.41,8.44-1.22c2-0.81,3-1.93,3-3.37
				c0-1.32-0.43-2.32-1.3-3c-0.87-0.68-1.98-1.16-3.34-1.45s-3.27-0.54-5.72-0.76c-0.68-0.08-1.37-0.15-2.07-0.23
				c-0.7-0.08-1.41-0.15-2.12-0.23c-0.15-0.04-0.31-0.07-0.48-0.09c-0.17-0.02-0.33-0.03-0.48-0.03c-4.38-0.57-7.89-1.27-10.54-2.1
				c-2.64-0.83-4.88-2.43-6.71-4.79c-1.83-2.36-2.75-5.79-2.75-10.28c0-3.93,0.94-7.29,2.83-10.08c1.89-2.79,4.62-4.92,8.21-6.37
				c3.59-1.45,7.93-2.18,13.03-2.18c2.98,0,5.96,0.3,8.92,0.91c2.96,0.6,5.81,1.47,8.52,2.61s5.23,2.49,7.53,4.08l-9.23,11.27
				c-2.57-1.44-5.25-2.55-8.04-3.34c-2.79-0.79-5.48-1.19-8.04-1.19c-3.13,0-5.57,0.36-7.31,1.08c-1.74,0.72-2.61,1.72-2.61,3
				c0,0.98,0.46,1.75,1.39,2.29c0.92,0.55,2.08,0.95,3.46,1.19c1.38,0.25,3.39,0.52,6.03,0.82c0.34,0.04,0.68,0.08,1.02,0.11
				s0.68,0.08,1.02,0.11c0.15,0.04,0.32,0.06,0.51,0.06c0.19,0,0.36,0.02,0.51,0.06c4.57,0.53,8.29,1.21,11.16,2.04
				c2.87,0.83,5.31,2.49,7.33,4.98c2.02,2.49,3.03,6.15,3.03,10.99c0,4.08-0.98,7.57-2.95,10.48c-1.96,2.91-4.83,5.12-8.61,6.65
				c-3.78,1.53-8.33,2.29-13.65,2.29C843,1534.53,839.58,1534.21,836.26,1533.59z"/>
			<path class="st2" d="M878.57,1451.32h15.52v15.52h-15.52V1451.32z M878.57,1474.88h15.52v58.79h-15.52V1474.88z"/>
			<path class="st2" d="M916.01,1533.59c-3.32-0.62-6.44-1.54-9.35-2.75c-2.91-1.21-5.48-2.66-7.7-4.36l9.57-11.95
				c2.83,1.81,5.8,3.21,8.89,4.19c3.1,0.98,6.04,1.47,8.84,1.47c3.62,0,6.44-0.41,8.44-1.22c2-0.81,3-1.93,3-3.37
				c0-1.32-0.43-2.32-1.3-3c-0.87-0.68-1.98-1.16-3.34-1.45s-3.27-0.54-5.72-0.76c-0.68-0.08-1.37-0.15-2.07-0.23
				c-0.7-0.08-1.41-0.15-2.12-0.23c-0.15-0.04-0.31-0.07-0.48-0.09c-0.17-0.02-0.33-0.03-0.48-0.03c-4.38-0.57-7.89-1.27-10.54-2.1
				c-2.64-0.83-4.88-2.43-6.71-4.79c-1.83-2.36-2.75-5.79-2.75-10.28c0-3.93,0.94-7.29,2.83-10.08c1.89-2.79,4.62-4.92,8.21-6.37
				c3.59-1.45,7.93-2.18,13.03-2.18c2.98,0,5.96,0.3,8.92,0.91c2.96,0.6,5.81,1.47,8.52,2.61s5.23,2.49,7.53,4.08l-9.23,11.27
				c-2.57-1.44-5.25-2.55-8.04-3.34c-2.79-0.79-5.48-1.19-8.04-1.19c-3.13,0-5.57,0.36-7.31,1.08c-1.74,0.72-2.61,1.72-2.61,3
				c0,0.98,0.46,1.75,1.39,2.29c0.92,0.55,2.08,0.95,3.46,1.19c1.38,0.25,3.39,0.52,6.03,0.82c0.34,0.04,0.68,0.08,1.02,0.11
				s0.68,0.08,1.02,0.11c0.15,0.04,0.32,0.06,0.51,0.06c0.19,0,0.36,0.02,0.51,0.06c4.57,0.53,8.29,1.21,11.16,2.04
				c2.87,0.83,5.31,2.49,7.33,4.98c2.02,2.49,3.03,6.15,3.03,10.99c0,4.08-0.98,7.57-2.95,10.48c-1.96,2.91-4.83,5.12-8.61,6.65
				c-3.78,1.53-8.33,2.29-13.65,2.29C922.75,1534.53,919.33,1534.21,916.01,1533.59z"/>
			<path class="st2" d="M954.64,1474.88h28.77v13.25h-28.77V1474.88z M964.3,1530.02c-2.4-2.62-3.6-6.5-3.6-11.64v-60.61h15.52
				v56.75c0,1.44,0.28,2.54,0.85,3.31c0.57,0.78,1.4,1.16,2.49,1.16h3.85v14.95h-7.82C970.46,1533.96,966.7,1532.65,964.3,1530.02z"
				/>
			<path class="st2" d="M994.09,1530.02c-3.12-3-4.67-7.56-4.67-13.68c0-5.81,1.75-10.18,5.24-13.08c3.49-2.91,8.73-4.36,15.72-4.36
				h14.73l0.79,11.84h-15.46c-2.34,0-4.1,0.46-5.27,1.39c-1.17,0.93-1.76,2.33-1.76,4.22c0,1.93,0.74,3.35,2.21,4.28
				c1.47,0.93,3.7,1.39,6.68,1.39c4.15,0,7.24-0.47,9.26-1.42c2.02-0.94,3.03-2.42,3.03-4.42l1.19,8.55
				c-0.23,2.12-1.2,3.91-2.92,5.38c-1.72,1.47-3.87,2.58-6.46,3.31c-2.59,0.74-5.32,1.11-8.19,1.11
				C1001.92,1534.53,997.21,1533.03,994.09,1530.02z M1024.59,1496.41c0-2.72-0.91-4.81-2.72-6.29s-4.38-2.21-7.7-2.21
				c-2.19,0-4.36,0.36-6.51,1.08s-4.06,1.72-5.72,3l-9.63-9.46c2.34-2.68,5.44-4.77,9.29-6.26c3.85-1.49,8.12-2.24,12.8-2.24
				c5.13,0,9.52,0.86,13.14,2.58c3.62,1.72,6.39,4.21,8.3,7.48c1.91,3.27,2.86,7.2,2.86,11.81v37.78h-14.1V1496.41z"/>
			<path class="st2" d="M1049.23,1474.88h15.52v58.79h-15.52V1474.88z M1083.22,1498.05c0-2.87-0.82-5.1-2.46-6.68
				s-3.97-2.38-7-2.38c-2.87,0-5.09,0.8-6.65,2.41c-1.57,1.61-2.35,3.86-2.35,6.77l-1.19-13.03c1.78-3.7,3.9-6.48,6.37-8.33
				c2.47-1.85,5.58-2.78,9.32-2.78c6.19,0,10.99,2.09,14.39,6.26c3.4,4.17,5.1,10.07,5.1,17.7v35.68h-15.52V1498.05z"/>
			<path class="st2" d="M1104.74,1474.88h28.77v13.25h-28.77V1474.88z M1114.4,1530.02c-2.4-2.62-3.6-6.5-3.6-11.64v-60.61h15.52
				v56.75c0,1.44,0.28,2.54,0.85,3.31c0.57,0.78,1.4,1.16,2.49,1.16h3.85v14.95h-7.82
				C1120.57,1533.96,1116.8,1532.65,1114.4,1530.02z"/>
		</g>
	</g>
</g>
</svg>
