<?xml version="1.0" encoding="utf-8"?>
<!-- Generator: Adobe Illustrator 25.3.0, SVG Export Plug-In . SVG Version: 6.00 Build 0)  -->
<svg version="1.1" id="Layer_1" xmlns="http://www.w3.org/2000/svg" xmlns:xlink="http://www.w3.org/1999/xlink" x="0px" y="0px"
	 viewBox="0 0 1284 2778" style="enable-background:new 0 0 1284 2778;" xml:space="preserve">
<style type="text/css">
	.st0{fill:#FCFDFD;}
	.st1{fill:#3C4855;}
	.st2{fill:#3C4755;}
</style>
<g>
	<path class="st0" d="M394.19,1473.95c0-101,0-202,0-303c115.25,0,230.5,0,345.75,0c0,101,0,202,0,303
		C624.69,1473.95,509.44,1473.95,394.19,1473.95z M574.83,1193.34c39.89,34.75,79.6,69.34,119.48,104.08
		c2.59-2.98,4.92-5.66,7.41-8.53c-42.43-36.96-84.6-73.71-126.89-110.55c-17.37,15.1-34.55,30.03-52.35,45.5c0-9.01,0-17.08,0-25.18
		c-12.8,0-25.32,0-38.02,0c0,1.71,0,3.07,0,4.44c0,16.87,0.07,33.74-0.12,50.61c-0.02,1.81-1.08,4.08-2.42,5.31
		c-7.46,6.83-15.16,13.4-22.77,20.08c-3.71,3.25-7.38,6.54-11.14,9.87c2.6,2.94,4.91,5.55,7.32,8.28c0.81-0.61,1.53-1.09,2.17-1.65
		c11.94-10.45,23.84-20.95,35.84-31.32c1.9-1.64,2.56-3.35,2.55-5.79c-0.09-14.87-0.05-29.74-0.05-44.61c0-1.31,0-2.62,0-3.98
		c5.42,0,10.23,0,15.52,0c0,12.79,0,25.4,0,38.61C532.84,1229.84,553.75,1211.66,574.83,1193.34z M460.13,1468.18
		c6.84-5.51,13.24-10.85,19.86-15.9c3.6-2.75,7.72-4.11,12.49-4.21c32.73-0.74,65.46-1.6,98.18-2.73c4.34-0.15,9.05-1.24,12.87-3.26
		c36.94-19.52,73.76-39.3,110.53-59.14c3.46-1.87,6.79-4.33,9.49-7.17c7.77-8.17,9.28-20.33,4.11-29.47
		c-5.11-9.03-15.53-13.71-26.75-10.99c-5.47,1.32-10.67,4.07-15.77,6.61c-15.94,7.97-31.78,16.16-47.89,24.38
		c1.78,3.46,3.46,6.72,5.17,10.06c18.17-9.29,35.81-18.35,53.49-27.32c2.31-1.17,4.79-2.17,7.3-2.77
		c5.96-1.42,11.36,0.61,14.22,5.01c2.84,4.36,2.9,10.59-0.95,15.05c-2.77,3.19-6.45,5.86-10.2,7.89
		c-35.44,19.16-70.96,38.19-106.55,57.06c-3.17,1.68-7.06,2.68-10.65,2.8c-33.35,1.1-66.7,1.93-100.05,2.86
		c-1.61,0.05-3.33,0.06-4.79,0.62c-12.79,4.91-22.72,13.63-31.85,23.77C455.27,1463.89,457.89,1466.19,460.13,1468.18z
		 M422.66,1413.35c14.94-13.76,29.41-27.37,44.25-40.57c3.91-3.47,8.72-6.24,13.56-8.29c9.79-4.14,20.15-4.3,30.57-2.63
		c10.22,1.64,20.39,4.12,30.67,4.68c18.07,0.99,36.21,0.77,54.33,1.11c2.37,0.04,4.76,0.14,7.08,0.57
		c7.18,1.33,12.51,7.08,12.61,13.36c0.1,6.22-4.78,11.88-11.88,13.56c-2.04,0.48-4.2,0.69-6.3,0.69
		c-17.37,0.06-34.75,0.04-52.12,0.04c-1.33,0-2.66,0-4.02,0c0,3.97,0,7.51,0,11.16c0.7,0.05,1.18,0.12,1.66,0.12
		c18.75,0.01,37.5,0.03,56.24-0.03c2.1-0.01,4.24-0.33,6.31-0.75c12.17-2.49,21.06-12.51,21.49-24.14
		c0.4-10.68-7.57-21.06-19.16-24.4c-3.55-1.02-7.38-1.4-11.08-1.45c-12.62-0.17-25.27,0.46-37.86-0.21
		c-13.06-0.7-26.15-1.99-39.04-4.12c-9.68-1.6-19.21-3.2-28.99-1.83c-12.1,1.7-23.08,5.72-32.21,14.41
		c-13.4,12.75-27.16,25.11-40.77,37.64c-0.98,0.9-1.93,1.83-2.93,2.79C417.68,1407.94,420.04,1410.5,422.66,1413.35z
		 M671.53,1332.32c0-9.76,0.17-19.13-0.14-28.49c-0.06-1.94-1.48-4.3-2.99-5.67c-29.53-26.6-59.15-53.09-88.78-79.58
		c-3.53-3.16-5.96-3.16-9.51,0.02c-29.72,26.57-59.45,53.13-89.05,79.84c-1.54,1.39-2.59,4.01-2.72,6.13
		c-0.37,5.85-0.13,11.74-0.13,17.62c0,4.45,0,8.89,0,13.28c4.05,0,7.59,0,11.3,0c0-8.91,0.1-17.53-0.06-26.15
		c-0.05-2.5,0.78-4.13,2.6-5.75c20.44-18.2,40.82-36.47,61.21-54.73c7.14-6.39,14.28-12.78,21.48-19.22
		c0.83,0.63,1.45,1.04,1.99,1.53c27.1,24.26,54.21,48.5,81.21,72.87c1.26,1.14,2.13,3.34,2.18,5.07c0.23,7.7,0.1,15.41,0.1,23.23
		C664.13,1332.32,667.6,1332.32,671.53,1332.32z"/>
	<path class="st1" d="M574.83,1193.34c-21.08,18.32-41.99,36.5-63.46,55.17c0-13.2,0-25.82,0-38.61c-5.29,0-10.1,0-15.52,0
		c0,1.36,0,2.67,0,3.98c0,14.87-0.04,29.74,0.05,44.61c0.02,2.44-0.65,4.15-2.55,5.79c-12.01,10.37-23.9,20.87-35.84,31.32
		c-0.64,0.56-1.36,1.03-2.17,1.65c-2.41-2.73-4.72-5.34-7.32-8.28c3.76-3.33,7.43-6.61,11.14-9.87
		c7.61-6.68,15.31-13.25,22.77-20.08c1.34-1.23,2.4-3.5,2.42-5.31c0.19-16.87,0.12-33.74,0.12-50.61c0-1.37,0-2.74,0-4.44
		c12.71,0,25.23,0,38.02,0c0,8.1,0,16.17,0,25.18c17.8-15.47,34.98-30.41,52.35-45.5c42.28,36.84,84.46,73.59,126.89,110.55
		c-2.49,2.86-4.82,5.54-7.41,8.53C654.43,1262.68,614.72,1228.09,574.83,1193.34z"/>
	<path class="st2" d="M460.13,1468.18c-2.24-1.98-4.86-4.29-7.75-6.85c9.13-10.14,19.06-18.86,31.85-23.77
		c1.46-0.56,3.18-0.58,4.79-0.62c33.35-0.94,66.71-1.77,100.05-2.86c3.59-0.12,7.48-1.12,10.65-2.8
		c35.6-18.87,71.11-37.9,106.55-57.06c3.75-2.03,7.44-4.69,10.2-7.89c3.85-4.45,3.79-10.68,0.95-15.05
		c-2.86-4.41-8.26-6.43-14.22-5.01c-2.51,0.6-4.99,1.6-7.3,2.77c-17.69,8.97-35.33,18.03-53.49,27.32
		c-1.72-3.34-3.39-6.6-5.17-10.06c16.12-8.22,31.95-16.41,47.89-24.38c5.1-2.55,10.3-5.29,15.77-6.61
		c11.22-2.71,21.65,1.96,26.75,10.99c5.17,9.14,3.66,21.29-4.11,29.47c-2.7,2.84-6.03,5.3-9.49,7.17
		c-36.77,19.84-73.58,39.62-110.53,59.14c-3.82,2.02-8.53,3.11-12.87,3.26c-32.72,1.13-65.45,2-98.18,2.73
		c-4.77,0.11-8.89,1.46-12.49,4.21C473.37,1457.32,466.97,1462.67,460.13,1468.18z"/>
	<path class="st2" d="M422.66,1413.35c-2.62-2.85-4.98-5.42-7.6-8.27c1.01-0.96,1.96-1.89,2.93-2.79
		c13.6-12.53,27.37-24.9,40.77-37.64c9.13-8.68,20.11-12.71,32.21-14.41c9.77-1.37,19.31,0.23,28.99,1.83
		c12.89,2.13,25.99,3.41,39.04,4.12c12.59,0.68,25.24,0.04,37.86,0.21c3.71,0.05,7.54,0.43,11.08,1.45
		c11.6,3.34,19.56,13.72,19.16,24.4c-0.43,11.63-9.32,21.65-21.49,24.14c-2.07,0.42-4.2,0.75-6.31,0.75
		c-18.75,0.06-37.49,0.03-56.24,0.03c-0.48,0-0.96-0.07-1.66-0.12c0-3.64,0-7.19,0-11.16c1.36,0,2.69,0,4.02,0
		c17.37,0,34.75,0.02,52.12-0.04c2.1-0.01,4.26-0.21,6.3-0.69c7.1-1.68,11.98-7.35,11.88-13.56c-0.1-6.28-5.43-12.03-12.61-13.36
		c-2.32-0.43-4.72-0.53-7.08-0.57c-18.11-0.33-36.25-0.12-54.33-1.11c-10.28-0.56-20.45-3.05-30.67-4.68
		c-10.42-1.67-20.78-1.51-30.57,2.63c-4.84,2.04-9.65,4.81-13.56,8.29C452.07,1385.98,437.6,1399.59,422.66,1413.35z"/>
	<path class="st2" d="M671.53,1332.32c-3.93,0-7.39,0-11.31,0c0-7.82,0.13-15.53-0.1-23.23c-0.05-1.74-0.92-3.94-2.18-5.07
		c-27-24.36-54.11-48.61-81.21-72.87c-0.55-0.49-1.17-0.9-1.99-1.53c-7.2,6.44-14.34,12.83-21.48,19.22
		c-20.39,18.25-40.77,36.52-61.21,54.73c-1.82,1.62-2.65,3.25-2.6,5.75c0.16,8.62,0.06,17.24,0.06,26.15c-3.71,0-7.24,0-11.3,0
		c0-4.39,0-8.84,0-13.28c0-5.87-0.24-11.76,0.13-17.62c0.13-2.12,1.18-4.74,2.72-6.13c29.6-26.71,59.33-53.27,89.05-79.84
		c3.55-3.17,5.98-3.18,9.51-0.02c29.63,26.49,59.25,52.98,88.78,79.58c1.52,1.37,2.93,3.73,2.99,5.67
		C671.7,1313.19,671.53,1322.56,671.53,1332.32z"/>
</g>
</svg>
